# Blender v3.6.4 OBJ File: ''
# www.blender.org
o Cube
v 0.400000 2.500000 -0.400000
v 0.400000 -2.500000 -0.400000
v 0.400000 2.500000 0.400000
v 0.400000 -2.500000 0.400000
v -0.400000 2.500000 -0.400000
v -0.400000 -2.500000 -0.400000
v -0.400000 2.500000 0.400000
v -0.400000 -2.500000 0.400000
v 0.400000 3.500000 -0.400000
v 0.400000 3.500000 0.400000
v -0.400000 3.500000 -0.400000
v -0.400000 3.500000 0.400000
v 0.400000 2.700000 -0.240000
v 0.400000 2.700000 0.240000
v 0.400000 3.300000 -0.240000
v 0.400000 3.300000 0.240000
v 5.400000 2.700000 -0.240000
v 5.400000 2.700000 0.240000
v 5.400000 3.300000 -0.240000
v 5.400000 3.300000 0.240000
v 5.400000 2.550000 -0.360000
v 5.400000 2.550000 0.360000
v 5.400000 3.450000 -0.360000
v 5.400000 3.450000 0.360000
v 6.150000 3.450000 0.360000
v 6.150000 3.450000 -0.360000
v 6.150000 2.550000 0.360000
v 6.150000 2.550000 -0.360000
v 5.400000 -2.450000 -0.360000
v 5.400000 -2.450000 0.360000
v 6.150000 -2.450000 0.360000
v 6.150000 -2.450000 -0.360000
v 6.150000 3.270000 0.216000
v 6.150000 3.270000 -0.216000
v 6.150000 2.730000 0.216000
v 6.150000 2.730000 -0.216000
v 11.150000 3.270000 0.216000
v 11.150000 3.270000 -0.216000
v 11.150000 2.730000 0.216000
v 11.150000 2.730000 -0.216000
vt 0.625000 0.250000
vt 0.625000 0.000000
vt 0.625000 0.000000
vt 0.625000 0.250000
vt 0.375000 0.750000
vt 0.625000 0.750000
vt 0.625000 1.000000
vt 0.375000 1.000000
vt 0.375000 0.000000
vt 0.375000 0.250000
vt 0.625000 0.500000
vt 0.625000 0.500000
vt 0.625000 0.500000
vt 0.625000 0.500000
vt 0.375000 0.500000
vt 0.625000 0.500000
vt 0.625000 0.500000
vt 0.875000 0.500000
vt 0.875000 0.750000
vt 0.625000 0.750000
vt 0.625000 0.750000
vt 0.625000 0.500000
vt 0.625000 1.000000
vt 0.625000 0.500000
vt 0.625000 0.500000
vt 0.625000 0.500000
vt 0.625000 0.750000
vt 0.625000 0.750000
vt 0.625000 0.750000
vt 0.625000 0.750000
vt 0.625000 0.750000
vt 0.625000 0.500000
vt 0.625000 0.500000
vt 0.625000 0.750000
vt 0.625000 0.750000
vt 0.625000 0.750000
vt 0.625000 0.750000
vt 0.625000 0.500000
vt 0.625000 0.500000
vt 0.625000 0.750000
vt 0.625000 0.750000
vt 0.625000 0.750000
vt 0.625000 0.750000
vt 0.625000 0.500000
vt 0.625000 0.500000
vn -1.0000 0.0000 0.0000
vn 0.0000 0.0000 1.0000
vn 1.0000 0.0000 0.0000
vn 0.0000 0.0000 -1.0000
vn 0.0000 1.0000 0.0000
vn 0.0000 -1.0000 0.0000
s off
f 5/1/1 7/2/1 12/3/1 11/4/1
f 4/5/2 3/6/2 7/7/2 8/8/2
f 8/9/1 7/2/1 5/1/1 6/10/1
f 28/11/3 26/12/3 34/13/3 36/14/3
f 2/15/3 1/16/3 3/6/3 4/5/3
f 6/10/4 5/1/4 1/16/4 2/15/4
f 9/17/5 11/18/5 12/19/5 10/20/5
f 9/17/3 10/20/3 16/21/3 15/22/3
f 1/16/4 5/1/4 11/4/4 9/17/4
f 7/7/2 3/6/2 10/20/2 12/23/2
f 13/24/4 15/22/4 19/25/4 17/26/4
f 3/6/3 1/16/3 13/24/3 14/27/3
f 1/16/3 9/17/3 15/22/3 13/24/3
f 10/20/3 3/6/3 14/27/3 16/21/3
f 20/28/1 18/29/1 22/30/1 24/31/1
f 14/27/6 13/24/6 17/26/6 18/29/6
f 16/21/2 14/27/2 18/29/2 20/28/2
f 15/22/5 16/21/5 20/28/5 19/25/5
f 21/32/4 23/33/4 26/12/4 28/11/4
f 19/25/1 20/28/1 24/31/1 23/33/1
f 17/26/1 19/25/1 23/33/1 21/32/1
f 18/29/1 17/26/1 21/32/1 22/30/1
f 25/34/3 27/35/3 35/36/3 33/37/3
f 21/32/4 28/11/4 32/38/4 29/39/4
f 24/31/2 22/30/2 27/35/2 25/34/2
f 23/33/5 24/31/5 25/34/5 26/12/5
f 33/37/2 35/36/2 39/40/2 37/41/2
f 22/30/1 21/32/1 29/39/1 30/42/1
f 28/11/3 27/35/3 31/43/3 32/38/3
f 27/35/2 22/30/2 30/42/2 31/43/2
f 26/12/3 25/34/3 33/37/3 34/13/3
f 27/35/3 28/11/3 36/14/3 35/36/3
f 36/14/4 34/13/4 38/44/4 40/45/4
f 34/13/5 33/37/5 37/41/5 38/44/5
f 35/36/6 36/14/6 40/45/6 39/40/6
o Cube.001
v 11.400000 2.500000 -0.400000
v 11.400000 -2.500000 -0.400000
v 11.400000 2.500000 0.400000
v 11.400000 -2.500000 0.400000
v 10.600000 2.500000 -0.400000
v 10.600000 -2.500000 -0.400000
v 10.600000 2.500000 0.400000
v 10.600000 -2.500000 0.400000
v 11.400000 3.500000 -0.400000
v 11.400000 3.500000 0.400000
v 10.600000 3.500000 -0.400000
v 10.600000 3.500000 0.400000
v 11.400000 2.700000 -0.240000
v 11.400000 2.700000 0.240000
v 11.400000 3.300000 -0.240000
v 11.400000 3.300000 0.240000
v 16.400000 2.700000 -0.240000
v 16.400000 2.700000 0.240000
v 16.400000 3.300000 -0.240000
v 16.400000 3.300000 0.240000
v 16.400000 2.550000 -0.360000
v 16.400000 2.550000 0.360000
v 16.400000 3.450000 -0.360000
v 16.400000 3.450000 0.360000
v 17.150000 3.450000 0.360000
v 17.150000 3.450000 -0.360000
v 17.150000 2.550000 0.360000
v 17.150000 2.550000 -0.360000
v 16.400000 -2.450000 -0.360000
v 16.400000 -2.450000 0.360000
v 17.150000 -2.450000 0.360000
v 17.150000 -2.450000 -0.360000
v 17.150000 3.270000 0.216000
v 17.150000 3.270000 -0.216000
v 17.150000 2.730000 0.216000
v 17.150000 2.730000 -0.216000
v 22.150000 3.270000 0.216000
v 22.150000 3.270000 -0.216000
v 22.150000 2.730000 0.216000
v 22.150000 2.730000 -0.216000
vt 0.625000 0.250000
vt 0.625000 0.000000
vt 0.625000 0.000000
vt 0.625000 0.250000
vt 0.375000 0.750000
vt 0.625000 0.750000
vt 0.625000 1.000000
vt 0.375000 1.000000
vt 0.375000 0.000000
vt 0.375000 0.250000
vt 0.625000 0.500000
vt 0.625000 0.500000
vt 0.625000 0.500000
vt 0.625000 0.500000
vt 0.375000 0.500000
vt 0.625000 0.500000
vt 0.625000 0.500000
vt 0.875000 0.500000
vt 0.875000 0.750000
vt 0.625000 0.750000
vt 0.625000 0.750000
vt 0.625000 0.500000
vt 0.625000 1.000000
vt 0.625000 0.500000
vt 0.625000 0.500000
vt 0.625000 0.500000
vt 0.625000 0.750000
vt 0.625000 0.750000
vt 0.625000 0.750000
vt 0.625000 0.750000
vt 0.625000 0.750000
vt 0.625000 0.500000
vt 0.625000 0.500000
vt 0.625000 0.750000
vt 0.625000 0.750000
vt 0.625000 0.750000
vt 0.625000 0.750000
vt 0.625000 0.500000
vt 0.625000 0.500000
vt 0.625000 0.750000
vt 0.625000 0.750000
vt 0.625000 0.750000
vt 0.625000 0.750000
vt 0.625000 0.500000
vt 0.625000 0.500000
vn -1.0000 0.0000 0.0000
vn 0.0000 0.0000 1.0000
vn 1.0000 0.0000 0.0000
vn 0.0000 0.0000 -1.0000
vn 0.0000 1.0000 0.0000
vn 0.0000 -1.0000 0.0000
s off
f 45/46/7 47/47/7 52/48/7 51/49/7
f 44/50/8 43/51/8 47/52/8 48/53/8
f 48/54/7 47/47/7 45/46/7 46/55/7
f 68/56/9 66/57/9 74/58/9 76/59/9
f 42/60/9 41/61/9 43/51/9 44/50/9
f 46/55/10 45/46/10 41/61/10 42/60/10
f 49/62/11 51/63/11 52/64/11 50/65/11
f 49/62/9 50/65/9 56/66/9 55/67/9
f 41/61/10 45/46/10 51/49/10 49/62/10
f 47/52/8 43/51/8 50/65/8 52/68/8
f 53/69/10 55/67/10 59/70/10 57/71/10
f 43/51/9 41/61/9 53/69/9 54/72/9
f 41/61/9 49/62/9 55/67/9 53/69/9
f 50/65/9 43/51/9 54/72/9 56/66/9
f 60/73/7 58/74/7 62/75/7 64/76/7
f 54/72/12 53/69/12 57/71/12 58/74/12
f 56/66/8 54/72/8 58/74/8 60/73/8
f 55/67/11 56/66/11 60/73/11 59/70/11
f 61/77/10 63/78/10 66/57/10 68/56/10
f 59/70/7 60/73/7 64/76/7 63/78/7
f 57/71/7 59/70/7 63/78/7 61/77/7
f 58/74/7 57/71/7 61/77/7 62/75/7
f 65/79/9 67/80/9 75/81/9 73/82/9
f 61/77/10 68/56/10 72/83/10 69/84/10
f 64/76/8 62/75/8 67/80/8 65/79/8
f 63/78/11 64/76/11 65/79/11 66/57/11
f 73/82/8 75/81/8 79/85/8 77/86/8
f 62/75/7 61/77/7 69/84/7 70/87/7
f 68/56/9 67/80/9 71/88/9 72/83/9
f 67/80/8 62/75/8 70/87/8 71/88/8
f 66/57/9 65/79/9 73/82/9 74/58/9
f 67/80/9 68/56/9 76/59/9 75/81/9
f 76/59/10 74/58/10 78/89/10 80/90/10
f 74/58/11 73/82/11 77/86/11 78/89/11
f 75/81/12 76/59/12 80/90/12 79/85/12
o Cube.002
v 22.400000 2.500000 -0.400000
v 22.400000 -2.500000 -0.400000
v 22.400000 2.500000 0.400000
v 22.400000 -2.500000 0.400000
v 21.600000 2.500000 -0.400000
v 21.600000 -2.500000 -0.400000
v 21.600000 2.500000 0.400000
v 21.600000 -2.500000 0.400000
v 22.400000 3.500000 -0.400000
v 22.400000 3.500000 0.400000
v 21.600000 3.500000 -0.400000
v 21.600000 3.500000 0.400000
v 22.400000 2.700000 -0.240000
v 22.400000 2.700000 0.240000
v 22.400000 3.300000 -0.240000
v 22.400000 3.300000 0.240000
v 27.400000 2.700000 -0.240002
v 27.400000 2.700000 0.239998
v 27.400000 3.300000 -0.240002
v 27.400000 3.300000 0.239998
v 27.400000 2.550000 -0.360002
v 27.400000 2.550000 0.359998
v 27.400000 3.450000 -0.360002
v 27.400000 3.450000 0.359998
v 28.150000 3.450000 0.359998
v 28.150000 3.450000 -0.360002
v 28.150000 2.550000 0.359998
v 28.150000 2.550000 -0.360002
v 27.400000 -2.450000 -0.360002
v 27.400000 -2.450000 0.359998
v 28.150000 -2.450000 0.359998
v 28.150000 -2.450000 -0.360002
v 28.150000 3.270000 0.215998
v 28.150000 3.270000 -0.216002
v 28.150000 2.730000 0.215998
v 28.150000 2.730000 -0.216002
v 33.150002 3.270000 0.215997
v 33.150002 3.270000 -0.216003
v 33.150002 2.730000 0.215997
v 33.150002 2.730000 -0.216003
vt 0.625000 0.250000
vt 0.625000 0.000000
vt 0.625000 0.000000
vt 0.625000 0.250000
vt 0.375000 0.750000
vt 0.625000 0.750000
vt 0.625000 1.000000
vt 0.375000 1.000000
vt 0.375000 0.000000
vt 0.375000 0.250000
vt 0.625000 0.500000
vt 0.625000 0.500000
vt 0.625000 0.500000
vt 0.625000 0.500000
vt 0.375000 0.500000
vt 0.625000 0.500000
vt 0.625000 0.500000
vt 0.875000 0.500000
vt 0.875000 0.750000
vt 0.625000 0.750000
vt 0.625000 0.750000
vt 0.625000 0.500000
vt 0.625000 1.000000
vt 0.625000 0.500000
vt 0.625000 0.500000
vt 0.625000 0.500000
vt 0.625000 0.750000
vt 0.625000 0.750000
vt 0.625000 0.750000
vt 0.625000 0.750000
vt 0.625000 0.750000
vt 0.625000 0.500000
vt 0.625000 0.500000
vt 0.625000 0.750000
vt 0.625000 0.750000
vt 0.625000 0.750000
vt 0.625000 0.750000
vt 0.625000 0.500000
vt 0.625000 0.500000
vt 0.625000 0.750000
vt 0.625000 0.750000
vt 0.625000 0.750000
vt 0.625000 0.750000
vt 0.625000 0.500000
vt 0.625000 0.500000
vn -1.0000 0.0000 0.0000
vn 0.0000 0.0000 1.0000
vn 1.0000 0.0000 0.0000
vn -0.0000 0.0000 -1.0000
vn 0.0000 1.0000 0.0000
vn 0.0000 -1.0000 0.0000
s off
f 85/91/13 87/92/13 92/93/13 91/94/13
f 84/95/14 83/96/14 87/97/14 88/98/14
f 88/99/13 87/92/13 85/91/13 86/100/13
f 108/101/15 106/102/15 114/103/15 116/104/15
f 82/105/15 81/106/15 83/96/15 84/95/15
f 86/100/16 85/91/16 81/106/16 82/105/16
f 89/107/17 91/108/17 92/109/17 90/110/17
f 89/107/15 90/110/15 96/111/15 95/112/15
f 81/106/16 85/91/16 91/94/16 89/107/16
f 87/97/14 83/96/14 90/110/14 92/113/14
f 93/114/16 95/112/16 99/115/16 97/116/16
f 83/96/15 81/106/15 93/114/15 94/117/15
f 81/106/15 89/107/15 95/112/15 93/114/15
f 90/110/15 83/96/15 94/117/15 96/111/15
f 100/118/13 98/119/13 102/120/13 104/121/13
f 94/117/18 93/114/18 97/116/18 98/119/18
f 96/111/14 94/117/14 98/119/14 100/118/14
f 95/112/17 96/111/17 100/118/17 99/115/17
f 101/122/16 103/123/16 106/102/16 108/101/16
f 99/115/13 100/118/13 104/121/13 103/123/13
f 97/116/13 99/115/13 103/123/13 101/122/13
f 98/119/13 97/116/13 101/122/13 102/120/13
f 105/124/15 107/125/15 115/126/15 113/127/15
f 101/122/16 108/101/16 112/128/16 109/129/16
f 104/121/14 102/120/14 107/125/14 105/124/14
f 103/123/17 104/121/17 105/124/17 106/102/17
f 113/127/14 115/126/14 119/130/14 117/131/14
f 102/120/13 101/122/13 109/129/13 110/132/13
f 108/101/15 107/125/15 111/133/15 112/128/15
f 107/125/14 102/120/14 110/132/14 111/133/14
f 106/102/15 105/124/15 113/127/15 114/103/15
f 107/125/15 108/101/15 116/104/15 115/126/15
f 116/104/16 114/103/16 118/134/16 120/135/16
f 114/103/17 113/127/17 117/131/17 118/134/17
f 115/126/18 116/104/18 120/135/18 119/130/18
