# Blender v3.6.4 OBJ File: ''
# www.blender.org
o Cylinder
v 0.000000 -1.000000 -1.000000
v 0.000000 1.000000 -1.000000
v 0.781831 -1.000000 -0.623490
v 0.781831 1.000000 -0.623490
v 0.974928 -1.000000 0.222521
v 0.974928 1.000000 0.222521
v 0.433884 -1.000000 0.900969
v 0.433884 1.000000 0.900969
v -0.433884 -1.000000 0.900969
v -0.433884 1.000000 0.900969
v -0.974928 -1.000000 0.222521
v -0.974928 1.000000 0.222521
v -0.781831 -1.000000 -0.623490
v -0.781831 1.000000 -0.623490
v -0.000000 1.000000 -0.800000
v 0.625465 1.000000 -0.498792
v 0.779942 1.000000 0.178017
v 0.347107 1.000000 0.720775
v -0.347107 1.000000 0.720775
v -0.779942 1.000000 0.178017
v -0.625465 1.000000 -0.498792
v -0.000000 -1.000000 -0.800000
v 0.625465 -1.000000 -0.498792
v 0.779942 -1.000000 0.178017
v 0.347107 -1.000000 0.720775
v -0.347107 -1.000000 0.720775
v -0.779942 -1.000000 0.178017
v -0.625465 -1.000000 -0.498792
vt 1.000000 0.500000
vt 1.000000 1.000000
vt 0.857143 1.000000
vt 0.857143 0.500000
vt 0.714286 1.000000
vt 0.714286 0.500000
vt 0.571429 1.000000
vt 0.571429 0.500000
vt 0.428571 1.000000
vt 0.428571 0.500000
vt 0.285714 1.000000
vt 0.285714 0.500000
vt 0.142857 1.000000
vt 0.285714 1.000000
vt 0.142857 1.000000
vt 0.142857 0.500000
vt 0.000000 1.000000
vt 0.000000 0.500000
vt 0.750000 0.490000
vt 0.562360 0.399638
vt 0.516017 0.196595
vt 0.645868 0.033767
vt 0.854132 0.033767
vt 0.983983 0.196595
vt 0.937640 0.399638
vt 0.285714 1.000000
vt 0.142857 1.000000
vt 0.571429 1.000000
vt 0.428571 1.000000
vt 0.000000 1.000000
vt 0.857143 1.000000
vt 0.714286 1.000000
vt 1.000000 1.000000
vt 0.571429 1.000000
vt 0.428571 1.000000
vt 0.857143 1.000000
vt 0.714286 1.000000
vt 0.000000 1.000000
vt 1.000000 1.000000
vn 0.4339 0.0000 -0.9010
vn 0.9749 0.0000 -0.2225
vn 0.7818 0.0000 0.6235
vn 0.0000 0.0000 1.0000
vn -0.7818 0.0000 0.6235
vn 0.0000 1.0000 0.0000
vn -0.9749 0.0000 -0.2225
vn -0.4339 0.0000 -0.9010
vn 0.9749 0.0000 0.2225
vn 0.0000 0.0000 -1.0000
vn -0.9749 0.0000 0.2225
vn 0.4339 0.0000 0.9010
vn 0.7818 0.0000 -0.6235
vn -0.7818 0.0000 -0.6235
vn -0.4339 0.0000 0.9010
s off
f 1/1/1 2/2/1 4/3/1 3/4/1
f 3/4/2 4/3/2 6/5/2 5/6/2
f 5/6/3 6/5/3 8/7/3 7/8/3
f 7/8/4 8/7/4 10/9/4 9/10/4
f 9/10/5 10/9/5 12/11/5 11/12/5
f 14/13/6 12/11/6 20/14/6 21/15/6
f 11/12/7 12/11/7 14/13/7 13/16/7
f 13/16/8 14/13/8 2/17/8 1/18/8
f 1/19/6 13/20/6 11/21/6 9/22/6 7/23/6 5/24/6 3/25/6
f 21/15/9 20/14/9 27/26/9 28/27/9
f 10/9/6 8/7/6 18/28/6 19/29/6
f 2/17/6 14/13/6 21/15/6 15/30/6
f 6/5/6 4/3/6 16/31/6 17/32/6
f 12/11/6 10/9/6 19/29/6 20/14/6
f 4/3/6 2/2/6 15/33/6 16/31/6
f 8/7/6 6/5/6 17/32/6 18/28/6
f 19/29/10 18/28/10 25/34/10 26/35/10
f 17/32/11 16/31/11 23/36/11 24/37/11
f 15/30/12 21/15/12 28/27/12 22/38/12
f 20/14/13 19/29/13 26/35/13 27/26/13
f 18/28/14 17/32/14 24/37/14 25/34/14
f 16/31/15 15/33/15 22/39/15 23/36/15
