# Blender v3.6.4 OBJ File: ''
# www.blender.org
o Icosphere
v 0.000000 -2.000000 0.000000
v 1.447200 -0.894430 1.051440
v -0.552770 -0.894430 1.701280
v 1.447200 -0.894430 -1.051440
v -1.788850 -0.894430 0.000000
v -0.552770 -0.894430 -1.701280
v 0.715539 1.004987 -0.000000
v 0.221107 1.004987 0.680512
v -0.578881 1.004987 0.420576
v -0.578881 1.004987 -0.420576
v 0.221107 1.004987 -0.680512
v -0.000001 3.447215 -0.000000
vt 0.166727 0.722990
vt 0.230338 0.918771
vt 0.000185 0.843988
vt 0.372582 0.722993
vt 0.000185 0.601988
vt 0.230342 0.527211
vt 0.679607 0.999815
vt 0.437611 0.999815
vt 0.558609 0.781233
vt 0.000185 0.072965
vt 0.218528 0.000185
vt 0.153793 0.252169
vt 0.633392 0.499815
vt 0.829173 0.499815
vt 0.681791 0.281233
vt 0.437611 0.499815
vt 0.584993 0.281233
vt 0.437241 0.000185
vt 0.218898 0.072965
vt 0.372506 0.252169
vt 0.636922 0.781233
vt 0.066455 0.281281
vt 0.285169 0.281281
vt 0.480297 0.781233
vt 0.558609 0.500185
vt 0.218528 0.526841
vt 0.633392 0.000185
vt 0.437241 0.526841
vn 0.1876 -0.7947 0.5774
vn 0.6071 -0.7947 0.0000
vn -0.4911 -0.7947 0.3568
vn -0.4911 -0.7947 -0.3568
vn 0.1876 -0.7947 -0.5774
vn 0.9332 0.3595 -0.0000
vn 0.2884 0.3595 0.8875
vn -0.7549 0.3595 0.5485
vn -0.7549 0.3595 -0.5485
vn 0.2884 0.3595 -0.8875
vn 0.6823 0.5373 0.4958
vn -0.2606 0.5373 0.8021
vn -0.8434 0.5373 0.0000
vn -0.2606 0.5373 -0.8021
vn 0.6823 0.5373 -0.4958
vn 0.7872 0.2306 0.5719
vn -0.3007 0.2306 0.9254
vn -0.9730 0.2306 0.0000
vn -0.3007 0.2306 -0.9254
vn 0.7872 0.2306 -0.5719
s 1
f 1/1/1 2/2/1 3/3/1
f 2/2/2 1/1/2 4/4/2
f 1/1/3 3/3/3 5/5/3
f 1/1/4 5/5/4 6/6/4
f 1/1/5 6/6/5 4/4/5
f 2/7/6 4/8/6 7/9/6
f 3/10/7 2/11/7 8/12/7
f 5/13/8 3/14/8 9/15/8
f 6/16/9 5/13/9 10/17/9
f 4/18/10 6/19/10 11/20/10
f 2/7/11 7/9/11 8/21/11
f 3/10/12 8/12/12 9/22/12
f 5/13/13 9/15/13 10/17/13
f 6/19/14 10/23/14 11/20/14
f 4/8/15 11/24/15 7/9/15
f 8/21/16 7/9/16 12/25/16
f 9/22/17 8/12/17 12/26/17
f 10/17/18 9/15/18 12/27/18
f 11/20/19 10/23/19 12/28/19
f 7/9/20 11/24/20 12/25/20
