# Blender v3.6.4 OBJ File: ''
# www.blender.org
o Cube
v 1.300000 1.000000 -1.000000
v 1.300000 -1.000000 -1.000000
v 2.080000 1.600000 0.000000
v 2.080000 -1.600000 0.000000
v -1.300000 1.000000 -1.000000
v -1.300000 -1.000000 -1.000000
v -2.080000 1.600000 0.000000
v -2.080000 -1.600000 0.000000
v 2.080000 1.600000 2.000000
v 2.080000 -1.600000 2.000000
v -2.080000 1.600000 2.000000
v -2.080000 -1.600000 2.000000
v 1.664000 1.280000 1.500000
v 1.664000 -1.280000 1.500000
v -1.664000 1.280000 1.500000
v -1.664000 -1.280000 1.500000
v 1.622400 -1.600000 0.220000
v -1.622400 -1.600000 0.220000
v 1.622400 -1.600000 1.780000
v -1.622400 -1.600000 1.780000
v 1.622400 -1.850000 0.220000
v -1.622400 -1.850000 0.220000
v 1.622400 -1.850000 1.780000
v -1.622400 -1.850000 1.780000
v 2.109120 -1.850000 -1.014000
v -2.109120 -1.850000 -1.014000
v 2.109120 -1.850000 2.014000
v -2.109120 -1.850000 2.014000
v 2.109120 -2.850000 -1.014000
v -2.109120 -2.850000 -1.014000
v 2.109120 -2.850000 2.014000
v -2.109120 -2.850000 2.014000
vt 0.625000 0.500000
vt 0.875000 0.500000
vt 0.875000 0.750000
vt 0.625000 0.750000
vt 0.625000 0.000000
vt 0.375000 0.000000
vt 0.375000 0.000000
vt 0.625000 0.000000
vt 0.625000 0.250000
vt 0.375000 0.250000
vt 0.125000 0.500000
vt 0.375000 0.500000
vt 0.375000 0.750000
vt 0.125000 0.750000
vt 0.625000 0.750000
vt 0.875000 0.750000
vt 0.875000 0.750000
vt 0.625000 0.750000
vt 0.375000 0.750000
vt 0.375000 0.750000
vt 0.375000 0.750000
vt 0.375000 0.750000
vt 0.625000 1.000000
vt 0.375000 1.000000
vt 0.375000 0.000000
vt 0.625000 0.000000
vt 0.125000 0.750000
vt 0.125000 0.750000
vt 0.125000 0.750000
vt 0.375000 0.750000
vt 0.125000 0.750000
vt 0.375000 0.000000
vt 0.375000 0.000000
vt 0.125000 0.750000
vt 0.375000 0.750000
vt 0.375000 0.750000
vt 0.375000 0.750000
vt 0.125000 0.750000
vt 0.375000 0.000000
vt 0.375000 0.000000
vt 0.375000 0.000000
vt 0.375000 0.000000
vt 0.375000 0.000000
vt 0.375000 0.000000
vt 0.125000 0.750000
vt 0.125000 0.750000
vt 0.125000 0.750000
vt 0.375000 0.750000
vt 0.375000 0.750000
vt 0.125000 0.750000
vn 0.0000 0.8575 -0.5145
vn -1.0000 0.0000 0.0000
vn -0.7885 0.0000 -0.6150
vn 0.0000 -0.8575 -0.5145
vn 0.7885 0.0000 -0.6150
vn 0.0000 0.0000 -1.0000
vn 0.0000 -0.8423 0.5391
vn 0.0000 -1.0000 0.0000
vn 0.0000 1.0000 0.0000
vn 1.0000 0.0000 0.0000
vn 0.0000 0.0000 1.0000
vn 0.7687 0.0000 0.6396
vn 0.0000 0.8423 0.5391
vn -0.7687 0.0000 0.6396
s off
f 1/1/1 5/2/1 7/3/1 3/4/1
f 7/5/2 8/6/2 12/7/2 11/8/2
f 8/6/3 7/5/3 5/9/3 6/10/3
f 6/11/4 2/12/4 4/13/4 8/14/4
f 2/12/5 1/1/5 3/4/5 4/13/5
f 6/10/6 5/9/6 1/1/6 2/12/6
f 9/15/7 11/16/7 15/17/7 13/18/7
f 4/13/8 10/19/8 19/20/8 17/21/8
f 3/4/9 7/3/9 11/16/9 9/15/9
f 4/13/10 3/4/10 9/15/10 10/19/10
f 14/22/11 13/18/11 15/23/11 16/24/11
f 11/8/12 12/7/12 16/25/12 15/26/12
f 12/27/13 10/19/13 14/22/13 16/28/13
f 10/19/14 9/15/14 13/18/14 14/22/14
f 18/29/6 17/21/6 21/30/6 22/31/6
f 12/7/8 8/6/8 18/32/8 20/33/8
f 8/14/8 4/13/8 17/21/8 18/29/8
f 10/19/8 12/27/8 20/34/8 19/20/8
f 21/30/9 23/35/9 27/36/9 25/37/9
f 17/21/10 19/20/10 23/35/10 21/30/10
f 19/20/11 20/34/11 24/38/11 23/35/11
f 20/33/2 18/32/2 22/39/2 24/40/2
f 28/41/2 26/42/2 30/43/2 32/44/2
f 23/35/9 24/38/9 28/45/9 27/36/9
f 24/40/9 22/39/9 26/42/9 28/41/9
f 22/31/9 21/30/9 25/37/9 26/46/9
f 30/47/8 29/48/8 31/49/8 32/50/8
f 26/46/6 25/37/6 29/48/6 30/47/6
f 25/37/10 27/36/10 31/49/10 29/48/10
f 27/36/11 28/45/11 32/50/11 31/49/11
