# Blender v3.6.4 OBJ File: ''
# www.blender.org
o Cube
v 1.940400 0.088000 -1.078000
v 1.940400 -0.088000 -1.078000
v 1.940400 0.088000 1.078000
v 1.940400 -0.088000 1.078000
v -1.940400 0.088000 -1.078000
v -1.940400 -0.088000 -1.078000
v -1.940400 0.088000 1.078000
v -1.940400 -0.088000 1.078000
v -1.305960 -0.088000 0.642200
v -1.305960 -0.088000 0.857800
v -1.694040 -0.088000 0.642200
v -1.694040 -0.088000 0.857800
v -0.866720 -0.088000 -0.819970
v -1.583280 -0.088000 -0.819970
v -1.139172 -0.088000 -0.615830
v -1.410828 -0.088000 -0.615830
v -0.866720 -2.088000 -0.819970
v -1.583280 -2.088000 -0.819970
v -1.139172 -2.088000 -0.615830
v -1.410828 -2.088000 -0.615830
v -1.305960 -2.088000 0.642200
v -1.305960 -2.088000 0.857800
v -1.694040 -2.088000 0.642200
v -1.694040 -2.088000 0.857800
v 1.641856 -0.088000 0.084400
v 1.641856 -0.088000 0.515600
v 0.992584 -0.088000 0.428440
v 0.992584 -0.088000 0.471560
v 1.641856 -2.088000 0.084400
v 1.641856 -2.088000 0.515600
v 0.992584 -2.088000 0.428440
v 0.992584 -2.088000 0.471560
v 1.613790 -0.088000 -0.939920
v 0.964518 -0.088000 -0.595880
v 1.052366 -0.088000 -0.888314
v 0.713204 -0.086237 -0.659606
v 1.613790 -2.088000 -0.939920
v 0.964518 -2.088000 -0.595880
v 1.052366 -2.088000 -0.888314
v 0.713204 -2.086237 -0.659606
vt 0.625000 0.500000
vt 0.875000 0.500000
vt 0.875000 0.750000
vt 0.625000 0.750000
vt 0.375000 0.750000
vt 0.625000 1.000000
vt 0.375000 1.000000
vt 0.375000 0.000000
vt 0.625000 0.000000
vt 0.625000 0.250000
vt 0.375000 0.250000
vt 0.375000 1.000000
vt 0.375000 0.750000
vt 0.375000 0.500000
vt 0.375000 0.500000
vt 0.375000 0.750000
vt 0.375000 0.500000
vt 0.375000 0.250000
vt 0.375000 0.000000
vt 0.375000 0.500000
vt 0.375000 0.750000
vt 0.375000 0.500000
vt 0.375000 0.500000
vt 0.375000 0.500000
vt 0.375000 0.250000
vt 0.375000 0.250000
vt 0.375000 0.250000
vt 0.375000 0.250000
vt 0.125000 0.500000
vt 0.125000 0.500000
vt 0.375000 0.500000
vt 0.375000 0.500000
vt 0.375000 0.500000
vt 0.125000 0.500000
vt 0.125000 0.500000
vt 0.125000 0.750000
vt 0.375000 1.000000
vt 0.375000 0.250000
vt 0.375000 0.000000
vt 0.375000 0.750000
vt 0.375000 0.750000
vt 0.375000 0.750000
vt 0.375000 0.500000
vt 0.375000 0.500000
vt 0.375000 0.500000
vt 0.375000 0.500000
vt 0.375000 0.500000
vt 0.375000 0.500000
vt 0.375000 0.500000
vt 0.375000 0.500000
vt 0.375000 0.500000
vn 0.0000 1.0000 0.0000
vn 0.0000 0.0000 1.0000
vn -1.0000 0.0000 0.0000
vn 0.0000 -1.0000 0.0000
vn 1.0000 0.0000 0.0000
vn 0.0000 0.0000 -1.0000
vn 0.0000 -1.0000 -0.0013
vn -0.7639 0.0000 0.6453
vn 0.5996 0.0000 0.8003
vn -0.0677 0.0000 0.9977
vn -0.4682 0.0000 -0.8836
vn -0.0915 0.0000 -0.9958
vn 0.0006 -1.0000 0.0049
vn -0.0022 -1.0000 -0.0006
vn -0.5591 0.0000 -0.8291
vn -0.2458 0.0000 0.9693
vn 0.4682 0.0000 0.8836
s off
f 1/1/1 5/2/1 7/3/1 3/4/1
f 4/5/2 3/4/2 7/6/2 8/7/2
f 8/8/3 7/9/3 5/10/3 6/11/3
f 4/5/4 8/7/4 12/12/4 10/13/4
f 2/14/5 1/1/5 3/4/5 4/5/5
f 6/11/6 5/10/6 1/1/6 2/14/6
f 9/15/5 10/13/5 22/16/5 21/17/5
f 8/8/4 6/11/4 11/18/4 12/19/4
f 10/13/4 9/15/4 27/20/4 28/21/4
f 9/15/7 15/22/7 36/23/7 34/24/7
f 16/25/8 14/26/8 18/27/8 20/28/8
f 9/15/4 11/29/4 16/30/4 15/22/4
f 11/18/4 6/11/4 14/26/4 16/25/4
f 6/11/4 2/14/4 13/31/4 14/26/4
f 18/27/4 17/32/4 19/33/4 20/34/4
f 14/26/6 13/31/6 17/32/6 18/27/6
f 13/31/9 15/22/9 19/33/9 17/32/9
f 15/22/2 16/30/2 20/34/2 19/33/2
f 23/35/4 21/17/4 22/16/4 24/36/4
f 11/29/6 9/15/6 21/17/6 23/35/6
f 10/13/2 12/12/2 24/37/2 22/16/2
f 12/19/3 11/18/3 23/38/3 24/39/3
f 26/40/10 28/21/10 32/41/10 30/42/10
f 2/14/4 4/5/4 26/40/4 25/43/4
f 9/15/4 2/14/4 25/43/4 27/20/4
f 4/5/4 10/13/4 28/21/4 26/40/4
f 29/44/4 30/42/4 32/41/4 31/45/4
f 25/43/5 26/40/5 30/42/5 29/44/5
f 27/20/11 25/43/11 29/44/11 31/45/11
f 28/21/3 27/20/3 31/45/3 32/41/3
f 35/46/12 33/47/12 37/48/12 39/49/12
f 13/31/4 2/14/4 33/47/4 35/46/4
f 15/22/13 13/31/13 35/46/13 36/23/13
f 2/14/4 9/15/4 34/24/4 33/47/4
f 37/48/14 38/50/14 40/51/14 39/49/14
f 36/23/15 35/46/15 39/49/15 40/51/15
f 34/24/16 36/23/16 40/51/16 38/50/16
f 33/47/17 34/24/17 38/50/17 37/48/17
