# Blender v3.6.5 OBJ File: ''
# www.blender.org
o Cube_Cube.001
v -1.300000 -0.750000 1.300000
v -1.300000 -0.500000 1.300000
v -1.300000 -0.750000 -1.300000
v -1.300000 -0.500000 -1.300000
v 1.300000 -0.750000 1.300000
v 1.300000 -0.500000 1.300000
v 1.300000 -0.750000 -1.300000
v 1.300000 -0.500000 -1.300000
v -1.092000 0.223533 1.126827
v -0.910000 0.250000 -0.910000
v 1.092000 0.223533 1.126827
v 0.910000 0.250000 -0.910000
v -0.873600 1.276467 0.511174
v -0.728000 1.250000 -0.728000
v 0.873600 1.276467 0.511174
v 0.728000 1.250000 -0.728000
vt 0.375000 0.000000
vt 0.625000 0.000000
vt 0.625000 0.250000
vt 0.375000 0.250000
vt 0.625000 0.500000
vt 0.375000 0.500000
vt 0.625000 0.750000
vt 0.375000 0.750000
vt 0.625000 1.000000
vt 0.375000 1.000000
vt 0.125000 0.500000
vt 0.125000 0.750000
vt 0.625000 0.500000
vt 0.625000 0.750000
vt 0.625000 1.000000
vt 0.625000 0.750000
vt 0.625000 1.000000
vt 0.625000 0.000000
vt 0.625000 0.250000
vt 0.625000 0.500000
vt 0.875000 0.500000
vt 0.875000 0.750000
vt 0.625000 0.250000
vt 0.625000 0.000000
vn -1.0000 0.0000 0.0000
vn 0.0000 0.0000 -1.0000
vn 1.0000 0.0000 0.0000
vn 0.0000 0.0000 1.0000
vn 0.0000 -1.0000 0.0000
vn 0.9243 0.3801 -0.0341
vn 0.0000 0.5048 0.8633
vn -0.9243 0.3801 -0.0341
vn 0.0000 0.2328 0.9725
vn 0.0000 0.4614 -0.8872
vn 0.0000 0.9998 -0.0214
vn 0.0000 0.1791 -0.9838
vn 0.9805 0.1705 -0.0980
vn -0.9805 0.1705 -0.0980
s off
f 1/1/1 2/2/1 4/3/1 3/4/1
f 3/4/2 4/3/2 8/5/2 7/6/2
f 7/6/3 8/5/3 6/7/3 5/8/3
f 5/8/4 6/7/4 2/9/4 1/10/4
f 3/11/5 7/6/5 5/8/5 1/12/5
f 6/7/6 8/5/6 12/13/6 11/14/6
f 9/15/7 11/14/7 15/16/7 13/17/7
f 4/3/8 2/2/8 9/18/8 10/19/8
f 2/9/9 6/7/9 11/14/9 9/15/9
f 8/5/10 4/3/10 10/19/10 12/13/10
f 16/20/11 14/21/11 13/22/11 15/16/11
f 12/13/12 10/19/12 14/23/12 16/20/12
f 11/14/13 12/13/13 16/20/13 15/16/13
f 10/19/14 9/18/14 13/24/14 14/23/14
o Cube.001_Cube.002
v -3.440192 0.150000 -0.362435
v -3.440192 -0.150000 -0.362436
v -3.959808 0.150000 -0.062436
v -3.959808 -0.150000 -0.062436
v -2.040193 0.150000 2.062436
v -2.040192 -0.150000 2.062436
v -2.559808 0.150000 2.362436
v -2.559808 -0.150000 2.362436
v -3.790192 0.150000 -0.968653
v -3.790192 -0.150000 -0.968653
v -4.309808 0.150000 -0.668653
v -4.309808 -0.150000 -0.668653
v -1.690193 0.150000 2.668653
v -1.690192 -0.150000 2.668653
v -2.209808 0.150000 2.968653
v -2.209808 -0.150000 2.968653
v -3.048866 0.800000 -0.224637
v -4.036135 0.800000 0.345363
v -3.713866 0.800000 -1.376451
v -4.701135 0.800000 -0.806451
v -1.989308 0.650000 1.790570
v -2.820693 0.650000 2.270570
v -1.429308 0.650000 2.760519
v -2.260693 0.650000 3.240519
vt 0.375000 0.000000
vt 0.375000 0.250000
vt 0.375000 0.250000
vt 0.375000 0.000000
vt 0.375000 0.250000
vt 0.625000 0.250000
vt 0.625000 0.500000
vt 0.375000 0.500000
vt 0.625000 0.750000
vt 0.375000 0.750000
vt 0.375000 0.750000
vt 0.625000 0.750000
vt 0.625000 1.000000
vt 0.375000 1.000000
vt 0.125000 0.500000
vt 0.125000 0.750000
vt 0.875000 0.500000
vt 0.875000 0.750000
vt 0.625000 0.000000
vt 0.625000 0.250000
vt 0.625000 1.000000
vt 0.375000 1.000000
vt 0.875000 0.500000
vt 0.875000 0.750000
vt 0.375000 0.500000
vt 0.625000 0.500000
vt 0.375000 0.750000
vt 0.375000 0.750000
vt 0.125000 0.500000
vt 0.125000 0.750000
vt 0.125000 0.750000
vt 0.125000 0.500000
vt 0.375000 0.250000
vt 0.375000 1.000000
vt 0.375000 1.000000
vt 0.375000 0.500000
vt 0.375000 0.500000
vn -0.4499 -0.4361 -0.7793
vn -0.8660 -0.0000 0.5000
vn 0.8660 0.0000 -0.5000
vn -0.0000 1.0000 0.0000
vn 0.0000 -1.0000 -0.0000
vn -0.5000 0.0000 -0.8660
vn 0.5000 0.0000 0.8660
vn 0.8148 -0.3387 -0.4704
vn -0.7998 -0.3836 0.4617
vn 0.4499 -0.4361 0.7793
vn 0.7998 -0.3836 -0.4617
vn -0.4610 -0.3872 -0.7985
vn 0.4610 -0.3872 0.7985
vn -0.8148 -0.3387 0.4704
s off
f 25/25/15 27/26/15 36/27/15 35/28/15
f 19/29/16 20/30/16 24/31/16 23/32/16
f 22/33/17 21/34/17 29/35/17 30/36/17
f 21/34/17 22/33/17 18/37/17 17/38/17
f 19/39/18 23/32/18 21/34/18 17/40/18
f 24/31/19 20/41/19 18/42/19 22/33/19
f 25/25/20 26/43/20 28/44/20 27/26/20
f 20/30/16 19/29/16 27/26/16 28/44/16
f 17/38/17 18/37/17 26/45/17 25/46/17
f 18/42/19 20/41/19 28/47/19 26/48/19
f 31/49/21 32/50/21 30/36/21 29/35/21
f 29/35/22 21/34/22 37/51/22 39/52/22
f 24/31/19 22/33/19 30/36/19 32/50/19
f 23/32/16 24/31/16 32/50/16 31/49/16
f 34/53/18 33/54/18 35/55/18 36/56/18
f 27/26/23 19/29/23 34/57/23 36/27/23
f 19/39/24 17/40/24 33/54/24 34/53/24
f 17/38/25 25/46/25 35/58/25 33/59/25
f 37/51/18 38/60/18 40/61/18 39/52/18
f 21/34/26 23/32/26 38/60/26 37/51/26
f 31/49/27 29/35/27 39/52/27 40/61/27
f 23/32/28 31/49/28 40/61/28 38/60/28
o Circle_Circle.001
v 0.000000 0.750000 0.850000
v 0.000000 1.269615 0.550000
v -0.469099 1.073975 0.662953
v -0.584957 0.634375 0.916756
v -0.260330 0.281843 1.120291
v 0.260330 0.281843 1.120291
v 0.584957 0.634375 0.916756
v 0.469099 1.073975 0.662953
vt 0.500000 0.500000
vt 0.500000 1.000000
vt 0.109084 0.811745
vt 0.012536 0.388740
vt 0.283058 0.049516
vt 0.716942 0.049516
vt 0.987464 0.388740
vt 0.890916 0.811745
vn 0.0000 0.5000 0.8660
s off
f 41/62/29 42/63/29 43/64/29
f 41/62/29 43/64/29 44/65/29
f 41/62/29 44/65/29 45/66/29
f 41/62/29 45/66/29 46/67/29
f 41/62/29 46/67/29 47/68/29
f 41/62/29 47/68/29 48/69/29
f 41/62/29 48/69/29 42/63/29
