# Blender v3.6.4 OBJ File: ''
# www.blender.org
o Cylinder
v 0.000000 -1.000000 -1.000000
v 0.000000 1.000000 -1.200000
v 0.781831 -1.000000 -0.623490
v 0.938198 1.000000 -0.748188
v 0.974928 -1.000000 0.222521
v 1.169914 1.000000 0.267025
v 0.433884 -1.000000 0.900969
v 0.520661 1.000000 1.081163
v -0.433884 -1.000000 0.900969
v -0.520661 1.000000 1.081163
v -0.974928 -1.000000 0.222521
v -1.169914 1.000000 0.267025
v -0.781831 -1.000000 -0.623490
v -0.938198 1.000000 -0.748188
v 0.000000 1.000000 -0.960000
v 0.750558 1.000000 -0.598550
v 0.935931 1.000000 0.213620
v 0.416528 1.000000 0.864930
v -0.416528 1.000000 0.864930
v -0.935931 1.000000 0.213620
v -0.750558 1.000000 -0.598550
v 0.000000 0.000000 -0.960000
v 0.750558 0.000000 -0.598550
v 0.935931 0.000000 0.213620
v 0.416528 0.000000 0.864930
v -0.416528 0.000000 0.864930
v -0.935931 0.000000 0.213620
v -0.750558 0.000000 -0.598550
v 0.000000 0.000000 -0.192000
v 0.150112 0.000000 -0.119710
v 0.187186 0.000000 0.042724
v 0.083306 0.000000 0.172986
v -0.083306 0.000000 0.172986
v -0.187186 0.000000 0.042724
v -0.150112 0.000000 -0.119710
v -0.313286 2.748797 0.148425
v -0.163174 2.748797 0.220715
v -0.126100 2.748797 0.383149
v -0.229980 2.748797 0.513411
v -0.396591 2.748797 0.513411
v -0.500472 2.748797 0.383149
v -0.463397 2.748797 0.220715
v -0.313286 3.248797 0.148425
v -0.163174 3.248797 0.220715
v -0.126100 3.248797 0.383149
v -0.229980 3.248797 0.513411
v -0.396591 3.248797 0.513411
v -0.500472 3.248797 0.383149
v -0.463397 3.248797 0.220715
v 0.339500 3.996667 1.422947
v 0.235620 3.996667 1.553209
v 0.339500 4.496667 1.422947
v 0.235620 4.496667 1.553209
v 0.000000 5.732183 0.000000
v -0.287111 3.576214 -1.036517
v -0.437222 3.576214 -0.964227
v -0.287111 4.076214 -1.036517
v -0.437222 4.076214 -0.964227
v 0.652966 3.378202 -0.274906
v 0.690040 3.378202 -0.112471
v 0.652966 3.878202 -0.274906
v 0.690040 3.878202 -0.112471
vt 1.000000 0.500000
vt 1.000000 1.000000
vt 0.857143 1.000000
vt 0.857143 0.500000
vt 0.714286 1.000000
vt 0.714286 0.500000
vt 0.571429 1.000000
vt 0.571429 0.500000
vt 0.428571 1.000000
vt 0.428571 0.500000
vt 0.285714 1.000000
vt 0.285714 0.500000
vt 0.000000 1.000000
vt 0.142857 1.000000
vt 0.142857 1.000000
vt 0.000000 1.000000
vt 0.142857 0.500000
vt 0.000000 0.500000
vt 0.750000 0.490000
vt 0.937640 0.399638
vt 0.983983 0.196595
vt 0.854132 0.033767
vt 0.645868 0.033767
vt 0.516017 0.196595
vt 0.562360 0.399638
vt 0.142857 1.000000
vt 0.000000 1.000000
vt 0.857143 1.000000
vt 0.714286 1.000000
vt 0.428571 1.000000
vt 0.285714 1.000000
vt 1.000000 1.000000
vt 0.571429 1.000000
vt 0.285714 1.000000
vt 0.285714 1.000000
vt 0.142857 1.000000
vt 0.428571 1.000000
vt 0.714286 1.000000
vt 0.571429 1.000000
vt 1.000000 1.000000
vt 0.857143 1.000000
vt 0.428571 1.000000
vt 0.428571 1.000000
vt 0.285714 1.000000
vt 0.571429 1.000000
vt 0.857143 1.000000
vt 0.714286 1.000000
vt 0.000000 1.000000
vt 1.000000 1.000000
vt 0.571429 1.000000
vt 0.714286 1.000000
vt 0.714286 1.000000
vt 0.571429 1.000000
vt 1.000000 1.000000
vt 0.857143 1.000000
vt 0.142857 1.000000
vt 0.000000 1.000000
vt 0.483983 0.196595
vt 0.000000 0.000000
vt 0.354132 0.033767
vt 1.000000 1.000000
vt 0.857143 1.000000
vt 0.285714 1.000000
vt 0.142857 1.000000
vt 0.571429 1.000000
vt 0.428571 1.000000
vt 0.857143 1.000000
vt 0.714286 1.000000
vt 1.000000 1.000000
vt 1.000000 1.000000
vt 0.714286 1.000000
vt 0.571429 1.000000
vt 0.354132 0.033767
vt 0.483983 0.196595
vt 0.714286 1.000000
vt 0.145868 0.033767
vt 0.016017 0.196595
vt 0.062360 0.399638
vt 0.250000 0.490000
vt 0.000000 1.000000
vt 0.142857 1.000000
vt 0.142857 1.000000
vt 0.000000 1.000000
vt 0.250000 0.490000
vt 0.062360 0.399638
vt 0.857143 1.000000
vt 0.483983 0.196595
vt 0.714286 1.000000
vn 0.4321 -0.0897 -0.8973
vn 0.9710 -0.0897 -0.2216
vn 0.7787 -0.0897 0.6210
vn 0.0000 -0.0897 0.9960
vn -0.7787 -0.0897 0.6210
vn 0.0000 1.0000 0.0000
vn -0.9710 -0.0897 -0.2216
vn -0.4321 -0.0897 -0.8973
vn 0.0000 -1.0000 0.0000
vn 0.4339 0.0000 0.9010
vn 0.7818 0.0000 -0.6235
vn -0.7818 0.0000 -0.6235
vn -0.4339 0.0000 0.9010
vn 0.9749 0.0000 0.2225
vn 0.0000 0.0000 -1.0000
vn -0.9749 0.0000 0.2225
vn -0.7712 -0.1641 0.6150
vn 0.6072 -0.6300 0.4842
vn 0.7818 0.0119 0.6234
vn 0.4284 0.1590 -0.8895
vn -0.9715 -0.0833 -0.2217
vn 0.0000 -0.1229 0.9924
vn 0.9657 0.1374 -0.2204
vn -0.4330 0.0620 -0.8992
vn 0.7806 0.0564 0.6225
vn 0.4339 0.0000 -0.9010
vn -0.9749 0.0000 -0.2225
vn 0.0000 0.0000 1.0000
vn 0.5563 -0.8213 -0.1270
vn 0.9998 0.0000 0.0221
vn -0.7818 0.0000 0.6235
vn 0.7818 0.0000 0.6235
vn -0.9127 0.0000 0.4087
vn -0.6072 0.6300 -0.4842
vn 0.9127 0.0000 -0.4087
vn 0.0000 0.2025 0.9793
vn -0.7578 0.2460 0.6043
vn -0.9624 0.1601 -0.2197
vn -0.4339 0.0009 -0.9010
vn 0.9715 -0.0835 -0.2217
vn 0.4313 -0.1079 -0.8957
vn -0.4339 0.0000 -0.9010
vn -0.2676 -0.7872 -0.5556
vn -0.9998 0.0000 -0.0221
vn 0.2676 0.7872 0.5556
vn 0.9749 0.0000 -0.2225
vn 0.5191 0.0000 0.8547
vn -0.5563 0.8213 0.1270
vn -0.5191 0.0000 -0.8547
s off
f 1/1/1 2/2/1 4/3/1 3/4/1
f 3/4/2 4/3/2 6/5/2 5/6/2
f 5/6/3 6/5/3 8/7/3 7/8/3
f 7/8/4 8/7/4 10/9/4 9/10/4
f 9/10/5 10/9/5 12/11/5 11/12/5
f 2/13/6 14/14/6 21/15/6 15/16/6
f 11/12/7 12/11/7 14/14/7 13/17/7
f 13/17/8 14/14/8 2/13/8 1/18/8
f 1/19/9 3/20/9 5/21/9 7/22/9 9/23/9 11/24/9 13/25/9
f 15/16/10 21/15/10 28/26/10 22/27/10
f 6/5/6 4/3/6 16/28/6 17/29/6
f 12/11/6 10/9/6 19/30/6 20/31/6
f 4/3/6 2/2/6 15/32/6 16/28/6
f 8/7/6 6/5/6 17/29/6 18/33/6
f 14/14/6 12/11/6 20/31/6 21/15/6
f 10/9/6 8/7/6 18/33/6 19/30/6
f 28/26/6 27/34/6 34/35/6 35/36/6
f 20/31/11 19/30/11 26/37/11 27/34/11
f 18/33/12 17/29/12 24/38/12 25/39/12
f 16/28/13 15/32/13 22/40/13 23/41/13
f 21/15/14 20/31/14 27/34/14 28/26/14
f 19/30/15 18/33/15 25/39/15 26/37/15
f 17/29/16 16/28/16 23/41/16 24/38/16
f 34/35/17 33/42/17 40/43/17 41/44/17
f 26/37/6 25/39/6 32/45/6 33/42/6
f 24/38/6 23/41/6 30/46/6 31/47/6
f 22/27/6 28/26/6 35/36/6 29/48/6
f 27/34/6 26/37/6 33/42/6 34/35/6
f 25/39/6 24/38/6 31/47/6 32/45/6
f 23/41/6 22/40/6 29/49/6 30/46/6
f 39/50/18 38/51/18 50/52/18 51/53/18
f 32/45/19 31/47/19 38/51/19 39/50/19
f 30/46/20 29/49/20 36/54/20 37/55/20
f 35/36/21 34/35/21 41/44/21 42/56/21
f 33/42/22 32/45/22 39/50/22 40/43/22
f 31/47/23 30/46/23 37/55/23 38/51/23
f 29/48/24 35/36/24 42/56/24 36/57/24
f 45/58/25 54/59/25 46/60/25
f 37/55/26 36/54/26 43/61/26 44/62/26
f 42/56/27 41/44/27 48/63/27 49/64/27
f 40/43/28 39/50/28 46/65/28 47/66/28
f 38/51/29 37/55/29 59/67/29 60/68/29
f 43/61/30 36/54/30 55/69/30 57/70/30
f 41/44/31 40/43/31 47/66/31 48/63/31
f 51/53/32 50/52/32 52/71/32 53/72/32
f 46/65/33 39/50/33 51/53/33 53/72/33
f 45/58/34 46/60/34 53/73/34 52/74/34
f 38/51/35 45/75/35 52/71/35 50/52/35
f 54/59/36 47/76/36 46/60/36
f 47/76/37 54/59/37 48/77/37
f 48/77/38 54/59/38 49/78/38
f 49/78/39 54/59/39 43/79/39
f 44/62/40 54/59/40 45/58/40
f 43/79/41 54/59/41 44/62/41
f 55/80/42 56/81/42 58/82/42 57/83/42
f 36/57/43 42/56/43 56/81/43 55/80/43
f 42/56/44 49/64/44 58/82/44 56/81/44
f 49/78/45 43/79/45 57/84/45 58/85/45
f 60/68/46 59/67/46 61/86/46 62/87/46
f 45/75/47 38/51/47 60/68/47 62/88/47
f 44/62/48 45/58/48 62/87/48 61/86/48
f 37/55/49 44/62/49 61/86/49 59/67/49
