# Blender v3.6.4 OBJ File: ''
# www.blender.org
o Cube
v 1.000000 1.000000 -1.000000
v 0.800000 0.000000 -0.800000
v 1.000000 1.000000 1.000000
v 0.800000 0.000000 0.800000
v -1.000000 1.000000 -1.000000
v -0.800000 0.000000 -0.800000
v -1.000000 1.000000 1.000000
v -0.800000 0.000000 0.800000
v 1.848000 1.819218 -1.848000
v 1.848000 1.819218 1.848000
v -1.848000 1.819218 -1.848000
v -1.848000 1.819218 1.848000
v 0.000000 1.819218 2.402400
v 2.402400 1.819218 0.000000
v -2.402400 1.819218 0.000000
v 0.000000 1.819218 -2.402400
v 0.000000 1.819218 0.000000
v 0.500000 -0.500000 -0.500000
v 0.500000 -0.500000 0.500000
v -0.500000 -0.500000 -0.500000
v -0.500000 -0.500000 0.500000
v 0.500000 -3.500000 -0.500000
v 0.500000 -3.500000 0.500000
v -0.500000 -3.500000 -0.500000
v -0.500000 -3.500000 0.500000
v 1.000000 -4.000000 -1.000000
v 1.000000 -4.000000 1.000000
v -1.000000 -4.000000 -1.000000
v -1.000000 -4.000000 1.000000
v 1.000000 -4.200000 -1.000000
v 1.000000 -4.200000 1.000000
v -1.000000 -4.200000 -1.000000
v -1.000000 -4.200000 1.000000
vt 0.625000 1.000000
vt 0.625000 0.750000
vt 0.625000 0.750000
vt 0.625000 0.875000
vt 0.625000 1.000000
vt 0.375000 0.750000
vt 0.375000 1.000000
vt 0.375000 0.000000
vt 0.625000 0.000000
vt 0.625000 0.250000
vt 0.375000 0.250000
vt 0.375000 0.500000
vt 0.375000 0.500000
vt 0.375000 0.250000
vt 0.625000 0.500000
vt 0.750000 0.625000
vt 0.875000 0.625000
vt 0.875000 0.750000
vt 0.750000 0.750000
vt 0.625000 0.000000
vt 0.625000 0.125000
vt 0.625000 0.250000
vt 0.625000 0.500000
vt 0.625000 0.625000
vt 0.625000 0.375000
vt 0.750000 0.500000
vt 0.875000 0.500000
vt 0.375000 0.750000
vt 0.375000 1.000000
vt 0.375000 1.000000
vt 0.375000 0.750000
vt 0.375000 0.000000
vt 0.375000 0.000000
vt 0.375000 0.250000
vt 0.375000 0.250000
vt 0.375000 0.000000
vt 0.375000 0.500000
vt 0.375000 0.500000
vt 0.375000 0.750000
vt 0.375000 0.750000
vt 0.375000 0.500000
vt 0.375000 1.000000
vt 0.125000 0.500000
vt 0.125000 0.750000
vt 0.375000 0.250000
vt 0.375000 1.000000
vt 0.375000 0.000000
vn 0.0000 -0.8276 0.5614
vn 0.0000 -0.1961 0.9806
vn -0.9806 -0.1961 0.0000
vn 0.0000 -0.5145 -0.8575
vn 0.9806 -0.1961 0.0000
vn 0.0000 -0.1961 -0.9806
vn 0.0000 1.0000 -0.0000
vn -0.5614 -0.8276 0.0000
vn 0.5614 -0.8276 0.0000
vn 0.0000 -0.8276 -0.5614
vn 0.0000 0.0000 1.0000
vn 0.0000 -0.5145 0.8575
vn -0.8575 -0.5145 0.0000
vn 0.8575 -0.5145 0.0000
vn -0.7071 0.7071 0.0000
vn -1.0000 0.0000 0.0000
vn 1.0000 0.0000 0.0000
vn 0.0000 0.0000 -1.0000
vn 0.7071 0.7071 0.0000
vn 0.0000 0.7071 -0.7071
vn 0.0000 0.7071 0.7071
vn 0.0000 -1.0000 0.0000
s off
f 7/1/1 3/2/1 10/3/1 13/4/1 12/5/1
f 4/6/2 3/2/2 7/1/2 8/7/2
f 8/8/3 7/9/3 5/10/3 6/11/3
f 6/11/4 2/12/4 18/13/4 20/14/4
f 2/12/5 1/15/5 3/2/5 4/6/5
f 6/11/6 5/10/6 1/15/6 2/12/6
f 17/16/7 15/17/7 12/18/7 13/19/7
f 5/10/8 7/9/8 12/20/8 15/21/8 11/22/8
f 3/2/9 1/15/9 9/23/9 14/24/9 10/3/9
f 1/15/10 5/10/10 11/22/10 16/25/10 9/23/10
f 14/24/7 17/16/7 13/19/7 10/3/7
f 9/23/7 16/26/7 17/16/7 14/24/7
f 16/26/7 11/27/7 15/17/7 17/16/7
f 19/28/11 21/29/11 25/30/11 23/31/11
f 4/6/12 8/7/12 21/29/12 19/28/12
f 8/8/13 6/11/13 20/14/13 21/32/13
f 2/12/14 4/6/14 19/28/14 18/13/14
f 25/33/15 24/34/15 28/35/15 29/36/15
f 21/32/16 20/14/16 24/34/16 25/33/16
f 18/13/17 19/28/17 23/31/17 22/37/17
f 20/14/18 18/13/18 22/37/18 24/34/18
f 26/38/17 27/39/17 31/40/17 30/41/17
f 22/37/19 23/31/19 27/39/19 26/38/19
f 24/34/20 22/37/20 26/38/20 28/35/20
f 23/31/21 25/30/21 29/42/21 27/39/21
f 32/43/22 30/41/22 31/40/22 33/44/22
f 28/35/18 26/38/18 30/41/18 32/45/18
f 27/39/11 29/42/11 33/46/11 31/40/11
f 29/36/16 28/35/16 32/45/16 33/47/16
